<?xml version="1.0" encoding="utf-8" standalone="no"?>
<!DOCTYPE svg PUBLIC "-//W3C//DTD SVG 1.1//EN"
  "http://www.w3.org/Graphics/SVG/1.1/DTD/svg11.dtd">
<svg height="720pt" version="1.1" viewBox="0 0 1152 720" width="1152pt" xmlns="http://www.w3.org/2000/svg" xmlns:xlink="http://www.w3.org/1999/xlink">
 <metadata>
  <rdf:RDF xmlns:cc="http://creativecommons.org/ns#" xmlns:dc="http://purl.org/dc/elements/1.1/" xmlns:rdf="http://www.w3.org/1999/02/22-rdf-syntax-ns#">
   <cc:Work>
    <dc:type rdf:resource="http://purl.org/dc/dcmitype/StillImage"/>
    <dc:date>2022-10-20T15:00:34.498822</dc:date>
    <dc:format>image/svg+xml</dc:format>
    <dc:creator>
     <cc:Agent>
      <dc:title>Matplotlib v3.4.3, https://matplotlib.org/</dc:title>
     </cc:Agent>
    </dc:creator>
   </cc:Work>
  </rdf:RDF>
 </metadata>
 <defs>
  <style type="text/css">*{stroke-linecap:butt;stroke-linejoin:round;}</style>
 </defs>
 <g id="figure_1">
  <g id="patch_1">
   <path d="M 0 720 
L 1152 720 
L 1152 0 
L 0 0 
z
" style="fill:#ffffff;"/>
  </g>
  <g id="axes_1">
   <g id="patch_2">
    <path d="M 144 640.8 
L 1036.8 640.8 
L 1036.8 86.4 
L 144 86.4 
z
" style="fill:#ffffff;"/>
   </g>
   <g id="PathCollection_1">
    <defs>
     <path d="M -1.581139 1.581139 
L 1.581139 1.581139 
L 1.581139 -1.581139 
L -1.581139 -1.581139 
z
" id="md00abcb61c" style="stroke:#0000ff;"/>
    </defs>
    <g clip-path="url(#pe4436ad3e1)">
     <use style="fill:#0000ff;stroke:#0000ff;" x="143.245065" xlink:href="#md00abcb61c" y="640.8"/>
     <use style="fill:#0000ff;stroke:#0000ff;" x="161.63803" xlink:href="#md00abcb61c" y="540.069374"/>
     <use style="fill:#0000ff;stroke:#0000ff;" x="180.030994" xlink:href="#md00abcb61c" y="460.324295"/>
     <use style="fill:#0000ff;stroke:#0000ff;" x="198.423959" xlink:href="#md00abcb61c" y="393.170544"/>
     <use style="fill:#0000ff;stroke:#0000ff;" x="216.816924" xlink:href="#md00abcb61c" y="342.805231"/>
     <use style="fill:#0000ff;stroke:#0000ff;" x="235.209889" xlink:href="#md00abcb61c" y="300.834136"/>
     <use style="fill:#0000ff;stroke:#0000ff;" x="253.602853" xlink:href="#md00abcb61c" y="267.257261"/>
     <use style="fill:#0000ff;stroke:#0000ff;" x="271.995818" xlink:href="#md00abcb61c" y="237.877495"/>
     <use style="fill:#0000ff;stroke:#0000ff;" x="290.388783" xlink:href="#md00abcb61c" y="216.891948"/>
     <use style="fill:#0000ff;stroke:#0000ff;" x="308.781748" xlink:href="#md00abcb61c" y="200.10351"/>
     <use style="fill:#0000ff;stroke:#0000ff;" x="327.174713" xlink:href="#md00abcb61c" y="183.315072"/>
     <use style="fill:#0000ff;stroke:#0000ff;" x="345.567677" xlink:href="#md00abcb61c" y="170.723744"/>
     <use style="fill:#0000ff;stroke:#0000ff;" x="363.960642" xlink:href="#md00abcb61c" y="162.329525"/>
     <use style="fill:#0000ff;stroke:#0000ff;" x="382.353607" xlink:href="#md00abcb61c" y="153.935306"/>
     <use style="fill:#0000ff;stroke:#0000ff;" x="400.746572" xlink:href="#md00abcb61c" y="145.541087"/>
     <use style="fill:#0000ff;stroke:#0000ff;" x="419.139536" xlink:href="#md00abcb61c" y="141.343978"/>
     <use style="fill:#0000ff;stroke:#0000ff;" x="437.532501" xlink:href="#md00abcb61c" y="137.146869"/>
     <use style="fill:#0000ff;stroke:#0000ff;" x="455.925466" xlink:href="#md00abcb61c" y="132.949759"/>
     <use style="fill:#0000ff;stroke:#0000ff;" x="474.318431" xlink:href="#md00abcb61c" y="132.949759"/>
     <use style="fill:#0000ff;stroke:#0000ff;" x="492.711395" xlink:href="#md00abcb61c" y="128.75265"/>
     <use style="fill:#0000ff;stroke:#0000ff;" x="511.10436" xlink:href="#md00abcb61c" y="200.10351"/>
     <use style="fill:#0000ff;stroke:#0000ff;" x="529.497325" xlink:href="#md00abcb61c" y="271.45437"/>
     <use style="fill:#0000ff;stroke:#0000ff;" x="547.89029" xlink:href="#md00abcb61c" y="334.411012"/>
     <use style="fill:#0000ff;stroke:#0000ff;" x="566.283254" xlink:href="#md00abcb61c" y="380.579215"/>
     <use style="fill:#0000ff;stroke:#0000ff;" x="584.676219" xlink:href="#md00abcb61c" y="422.55031"/>
     <use style="fill:#0000ff;stroke:#0000ff;" x="603.069184" xlink:href="#md00abcb61c" y="456.127185"/>
     <use style="fill:#0000ff;stroke:#0000ff;" x="621.462149" xlink:href="#md00abcb61c" y="485.506951"/>
     <use style="fill:#0000ff;stroke:#0000ff;" x="639.855113" xlink:href="#md00abcb61c" y="510.689608"/>
     <use style="fill:#0000ff;stroke:#0000ff;" x="658.248078" xlink:href="#md00abcb61c" y="531.675155"/>
     <use style="fill:#0000ff;stroke:#0000ff;" x="676.641043" xlink:href="#md00abcb61c" y="548.463593"/>
     <use style="fill:#0000ff;stroke:#0000ff;" x="695.034008" xlink:href="#md00abcb61c" y="565.25203"/>
     <use style="fill:#0000ff;stroke:#0000ff;" x="713.426973" xlink:href="#md00abcb61c" y="577.843359"/>
     <use style="fill:#0000ff;stroke:#0000ff;" x="731.819937" xlink:href="#md00abcb61c" y="590.434687"/>
     <use style="fill:#0000ff;stroke:#0000ff;" x="750.212902" xlink:href="#md00abcb61c" y="594.631796"/>
     <use style="fill:#0000ff;stroke:#0000ff;" x="768.605867" xlink:href="#md00abcb61c" y="603.026015"/>
     <use style="fill:#0000ff;stroke:#0000ff;" x="786.998832" xlink:href="#md00abcb61c" y="611.420234"/>
     <use style="fill:#0000ff;stroke:#0000ff;" x="805.391796" xlink:href="#md00abcb61c" y="615.617343"/>
     <use style="fill:#0000ff;stroke:#0000ff;" x="823.784761" xlink:href="#md00abcb61c" y="619.814453"/>
     <use style="fill:#0000ff;stroke:#0000ff;" x="842.177726" xlink:href="#md00abcb61c" y="624.011562"/>
     <use style="fill:#0000ff;stroke:#0000ff;" x="860.570691" xlink:href="#md00abcb61c" y="628.208672"/>
     <use style="fill:#0000ff;stroke:#0000ff;" x="878.963655" xlink:href="#md00abcb61c" y="628.208672"/>
     <use style="fill:#0000ff;stroke:#0000ff;" x="897.35662" xlink:href="#md00abcb61c" y="632.405781"/>
     <use style="fill:#0000ff;stroke:#0000ff;" x="915.749585" xlink:href="#md00abcb61c" y="636.602891"/>
     <use style="fill:#0000ff;stroke:#0000ff;" x="934.14255" xlink:href="#md00abcb61c" y="636.602891"/>
     <use style="fill:#0000ff;stroke:#0000ff;" x="952.535514" xlink:href="#md00abcb61c" y="636.602891"/>
    </g>
   </g>
   <g id="matplotlib.axis_1">
    <g id="xtick_1">
     <g id="line2d_1">
      <path clip-path="url(#pe4436ad3e1)" d="M 280.505996 640.8 
L 280.505996 86.4 
" style="fill:none;stroke:#000000;stroke-linecap:square;stroke-width:0.8;"/>
     </g>
     <g id="line2d_2">
      <defs>
       <path d="M 0 0 
L 0 3.5 
" id="mbea6e66f28" style="stroke:#000000;stroke-width:0.8;"/>
      </defs>
      <g>
       <use style="stroke:#000000;stroke-width:0.8;" x="280.505996" xlink:href="#mbea6e66f28" y="640.8"/>
      </g>
     </g>
     <g id="text_1">
      <!-- 2 -->
      <g transform="translate(277.324746 655.398438)scale(0.1 -0.1)">
       <defs>
        <path d="M 1228 531 
L 3431 531 
L 3431 0 
L 469 0 
L 469 531 
Q 828 903 1448 1529 
Q 2069 2156 2228 2338 
Q 2531 2678 2651 2914 
Q 2772 3150 2772 3378 
Q 2772 3750 2511 3984 
Q 2250 4219 1831 4219 
Q 1534 4219 1204 4116 
Q 875 4013 500 3803 
L 500 4441 
Q 881 4594 1212 4672 
Q 1544 4750 1819 4750 
Q 2544 4750 2975 4387 
Q 3406 4025 3406 3419 
Q 3406 3131 3298 2873 
Q 3191 2616 2906 2266 
Q 2828 2175 2409 1742 
Q 1991 1309 1228 531 
z
" id="DejaVuSans-32" transform="scale(0.015625)"/>
       </defs>
       <use xlink:href="#DejaVuSans-32"/>
      </g>
     </g>
    </g>
    <g id="xtick_2">
     <g id="line2d_3">
      <path clip-path="url(#pe4436ad3e1)" d="M 417.766927 640.8 
L 417.766927 86.4 
" style="fill:none;stroke:#000000;stroke-linecap:square;stroke-width:0.8;"/>
     </g>
     <g id="line2d_4">
      <g>
       <use style="stroke:#000000;stroke-width:0.8;" x="417.766927" xlink:href="#mbea6e66f28" y="640.8"/>
      </g>
     </g>
     <g id="text_2">
      <!-- 4 -->
      <g transform="translate(414.585677 655.398438)scale(0.1 -0.1)">
       <defs>
        <path d="M 2419 4116 
L 825 1625 
L 2419 1625 
L 2419 4116 
z
M 2253 4666 
L 3047 4666 
L 3047 1625 
L 3713 1625 
L 3713 1100 
L 3047 1100 
L 3047 0 
L 2419 0 
L 2419 1100 
L 313 1100 
L 313 1709 
L 2253 4666 
z
" id="DejaVuSans-34" transform="scale(0.015625)"/>
       </defs>
       <use xlink:href="#DejaVuSans-34"/>
      </g>
     </g>
    </g>
    <g id="xtick_3">
     <g id="line2d_5">
      <path clip-path="url(#pe4436ad3e1)" d="M 555.027858 640.8 
L 555.027858 86.4 
" style="fill:none;stroke:#000000;stroke-linecap:square;stroke-width:0.8;"/>
     </g>
     <g id="line2d_6">
      <g>
       <use style="stroke:#000000;stroke-width:0.8;" x="555.027858" xlink:href="#mbea6e66f28" y="640.8"/>
      </g>
     </g>
     <g id="text_3">
      <!-- 6 -->
      <g transform="translate(551.846608 655.398438)scale(0.1 -0.1)">
       <defs>
        <path d="M 2113 2584 
Q 1688 2584 1439 2293 
Q 1191 2003 1191 1497 
Q 1191 994 1439 701 
Q 1688 409 2113 409 
Q 2538 409 2786 701 
Q 3034 994 3034 1497 
Q 3034 2003 2786 2293 
Q 2538 2584 2113 2584 
z
M 3366 4563 
L 3366 3988 
Q 3128 4100 2886 4159 
Q 2644 4219 2406 4219 
Q 1781 4219 1451 3797 
Q 1122 3375 1075 2522 
Q 1259 2794 1537 2939 
Q 1816 3084 2150 3084 
Q 2853 3084 3261 2657 
Q 3669 2231 3669 1497 
Q 3669 778 3244 343 
Q 2819 -91 2113 -91 
Q 1303 -91 875 529 
Q 447 1150 447 2328 
Q 447 3434 972 4092 
Q 1497 4750 2381 4750 
Q 2619 4750 2861 4703 
Q 3103 4656 3366 4563 
z
" id="DejaVuSans-36" transform="scale(0.015625)"/>
       </defs>
       <use xlink:href="#DejaVuSans-36"/>
      </g>
     </g>
    </g>
    <g id="xtick_4">
     <g id="line2d_7">
      <path clip-path="url(#pe4436ad3e1)" d="M 692.288789 640.8 
L 692.288789 86.4 
" style="fill:none;stroke:#000000;stroke-linecap:square;stroke-width:0.8;"/>
     </g>
     <g id="line2d_8">
      <g>
       <use style="stroke:#000000;stroke-width:0.8;" x="692.288789" xlink:href="#mbea6e66f28" y="640.8"/>
      </g>
     </g>
     <g id="text_4">
      <!-- 8 -->
      <g transform="translate(689.107539 655.398438)scale(0.1 -0.1)">
       <defs>
        <path d="M 2034 2216 
Q 1584 2216 1326 1975 
Q 1069 1734 1069 1313 
Q 1069 891 1326 650 
Q 1584 409 2034 409 
Q 2484 409 2743 651 
Q 3003 894 3003 1313 
Q 3003 1734 2745 1975 
Q 2488 2216 2034 2216 
z
M 1403 2484 
Q 997 2584 770 2862 
Q 544 3141 544 3541 
Q 544 4100 942 4425 
Q 1341 4750 2034 4750 
Q 2731 4750 3128 4425 
Q 3525 4100 3525 3541 
Q 3525 3141 3298 2862 
Q 3072 2584 2669 2484 
Q 3125 2378 3379 2068 
Q 3634 1759 3634 1313 
Q 3634 634 3220 271 
Q 2806 -91 2034 -91 
Q 1263 -91 848 271 
Q 434 634 434 1313 
Q 434 1759 690 2068 
Q 947 2378 1403 2484 
z
M 1172 3481 
Q 1172 3119 1398 2916 
Q 1625 2713 2034 2713 
Q 2441 2713 2670 2916 
Q 2900 3119 2900 3481 
Q 2900 3844 2670 4047 
Q 2441 4250 2034 4250 
Q 1625 4250 1398 4047 
Q 1172 3844 1172 3481 
z
" id="DejaVuSans-38" transform="scale(0.015625)"/>
       </defs>
       <use xlink:href="#DejaVuSans-38"/>
      </g>
     </g>
    </g>
    <g id="xtick_5">
     <g id="line2d_9">
      <path clip-path="url(#pe4436ad3e1)" d="M 829.54972 640.8 
L 829.54972 86.4 
" style="fill:none;stroke:#000000;stroke-linecap:square;stroke-width:0.8;"/>
     </g>
     <g id="line2d_10">
      <g>
       <use style="stroke:#000000;stroke-width:0.8;" x="829.54972" xlink:href="#mbea6e66f28" y="640.8"/>
      </g>
     </g>
     <g id="text_5">
      <!-- 10 -->
      <g transform="translate(823.18722 655.398438)scale(0.1 -0.1)">
       <defs>
        <path d="M 794 531 
L 1825 531 
L 1825 4091 
L 703 3866 
L 703 4441 
L 1819 4666 
L 2450 4666 
L 2450 531 
L 3481 531 
L 3481 0 
L 794 0 
L 794 531 
z
" id="DejaVuSans-31" transform="scale(0.015625)"/>
        <path d="M 2034 4250 
Q 1547 4250 1301 3770 
Q 1056 3291 1056 2328 
Q 1056 1369 1301 889 
Q 1547 409 2034 409 
Q 2525 409 2770 889 
Q 3016 1369 3016 2328 
Q 3016 3291 2770 3770 
Q 2525 4250 2034 4250 
z
M 2034 4750 
Q 2819 4750 3233 4129 
Q 3647 3509 3647 2328 
Q 3647 1150 3233 529 
Q 2819 -91 2034 -91 
Q 1250 -91 836 529 
Q 422 1150 422 2328 
Q 422 3509 836 4129 
Q 1250 4750 2034 4750 
z
" id="DejaVuSans-30" transform="scale(0.015625)"/>
       </defs>
       <use xlink:href="#DejaVuSans-31"/>
       <use x="63.623047" xlink:href="#DejaVuSans-30"/>
      </g>
     </g>
    </g>
    <g id="xtick_6">
     <g id="line2d_11">
      <path clip-path="url(#pe4436ad3e1)" d="M 966.810651 640.8 
L 966.810651 86.4 
" style="fill:none;stroke:#000000;stroke-linecap:square;stroke-width:0.8;"/>
     </g>
     <g id="line2d_12">
      <g>
       <use style="stroke:#000000;stroke-width:0.8;" x="966.810651" xlink:href="#mbea6e66f28" y="640.8"/>
      </g>
     </g>
     <g id="text_6">
      <!-- 12 -->
      <g transform="translate(960.448151 655.398438)scale(0.1 -0.1)">
       <use xlink:href="#DejaVuSans-31"/>
       <use x="63.623047" xlink:href="#DejaVuSans-32"/>
      </g>
     </g>
    </g>
    <g id="xtick_7">
     <g id="line2d_13">
      <path clip-path="url(#pe4436ad3e1)" d="M 177.560298 640.8 
L 177.560298 86.4 
" style="fill:none;stroke:#808080;stroke-dasharray:0.8,1.32;stroke-dashoffset:0;stroke-width:0.8;"/>
     </g>
     <g id="line2d_14">
      <defs>
       <path d="M 0 0 
L 0 2 
" id="m5cf0d74831" style="stroke:#000000;stroke-width:0.6;"/>
      </defs>
      <g>
       <use style="stroke:#000000;stroke-width:0.6;" x="177.560298" xlink:href="#m5cf0d74831" y="640.8"/>
      </g>
     </g>
    </g>
    <g id="xtick_8">
     <g id="line2d_15">
      <path clip-path="url(#pe4436ad3e1)" d="M 211.87553 640.8 
L 211.87553 86.4 
" style="fill:none;stroke:#808080;stroke-dasharray:0.8,1.32;stroke-dashoffset:0;stroke-width:0.8;"/>
     </g>
     <g id="line2d_16">
      <g>
       <use style="stroke:#000000;stroke-width:0.6;" x="211.87553" xlink:href="#m5cf0d74831" y="640.8"/>
      </g>
     </g>
    </g>
    <g id="xtick_9">
     <g id="line2d_17">
      <path clip-path="url(#pe4436ad3e1)" d="M 246.190763 640.8 
L 246.190763 86.4 
" style="fill:none;stroke:#808080;stroke-dasharray:0.8,1.32;stroke-dashoffset:0;stroke-width:0.8;"/>
     </g>
     <g id="line2d_18">
      <g>
       <use style="stroke:#000000;stroke-width:0.6;" x="246.190763" xlink:href="#m5cf0d74831" y="640.8"/>
      </g>
     </g>
    </g>
    <g id="xtick_10">
     <g id="line2d_19">
      <path clip-path="url(#pe4436ad3e1)" d="M 314.821229 640.8 
L 314.821229 86.4 
" style="fill:none;stroke:#808080;stroke-dasharray:0.8,1.32;stroke-dashoffset:0;stroke-width:0.8;"/>
     </g>
     <g id="line2d_20">
      <g>
       <use style="stroke:#000000;stroke-width:0.6;" x="314.821229" xlink:href="#m5cf0d74831" y="640.8"/>
      </g>
     </g>
    </g>
    <g id="xtick_11">
     <g id="line2d_21">
      <path clip-path="url(#pe4436ad3e1)" d="M 349.136461 640.8 
L 349.136461 86.4 
" style="fill:none;stroke:#808080;stroke-dasharray:0.8,1.32;stroke-dashoffset:0;stroke-width:0.8;"/>
     </g>
     <g id="line2d_22">
      <g>
       <use style="stroke:#000000;stroke-width:0.6;" x="349.136461" xlink:href="#m5cf0d74831" y="640.8"/>
      </g>
     </g>
    </g>
    <g id="xtick_12">
     <g id="line2d_23">
      <path clip-path="url(#pe4436ad3e1)" d="M 383.451694 640.8 
L 383.451694 86.4 
" style="fill:none;stroke:#808080;stroke-dasharray:0.8,1.32;stroke-dashoffset:0;stroke-width:0.8;"/>
     </g>
     <g id="line2d_24">
      <g>
       <use style="stroke:#000000;stroke-width:0.6;" x="383.451694" xlink:href="#m5cf0d74831" y="640.8"/>
      </g>
     </g>
    </g>
    <g id="xtick_13">
     <g id="line2d_25">
      <path clip-path="url(#pe4436ad3e1)" d="M 452.08216 640.8 
L 452.08216 86.4 
" style="fill:none;stroke:#808080;stroke-dasharray:0.8,1.32;stroke-dashoffset:0;stroke-width:0.8;"/>
     </g>
     <g id="line2d_26">
      <g>
       <use style="stroke:#000000;stroke-width:0.6;" x="452.08216" xlink:href="#m5cf0d74831" y="640.8"/>
      </g>
     </g>
    </g>
    <g id="xtick_14">
     <g id="line2d_27">
      <path clip-path="url(#pe4436ad3e1)" d="M 486.397393 640.8 
L 486.397393 86.4 
" style="fill:none;stroke:#808080;stroke-dasharray:0.8,1.32;stroke-dashoffset:0;stroke-width:0.8;"/>
     </g>
     <g id="line2d_28">
      <g>
       <use style="stroke:#000000;stroke-width:0.6;" x="486.397393" xlink:href="#m5cf0d74831" y="640.8"/>
      </g>
     </g>
    </g>
    <g id="xtick_15">
     <g id="line2d_29">
      <path clip-path="url(#pe4436ad3e1)" d="M 520.712625 640.8 
L 520.712625 86.4 
" style="fill:none;stroke:#808080;stroke-dasharray:0.8,1.32;stroke-dashoffset:0;stroke-width:0.8;"/>
     </g>
     <g id="line2d_30">
      <g>
       <use style="stroke:#000000;stroke-width:0.6;" x="520.712625" xlink:href="#m5cf0d74831" y="640.8"/>
      </g>
     </g>
    </g>
    <g id="xtick_16">
     <g id="line2d_31">
      <path clip-path="url(#pe4436ad3e1)" d="M 589.343091 640.8 
L 589.343091 86.4 
" style="fill:none;stroke:#808080;stroke-dasharray:0.8,1.32;stroke-dashoffset:0;stroke-width:0.8;"/>
     </g>
     <g id="line2d_32">
      <g>
       <use style="stroke:#000000;stroke-width:0.6;" x="589.343091" xlink:href="#m5cf0d74831" y="640.8"/>
      </g>
     </g>
    </g>
    <g id="xtick_17">
     <g id="line2d_33">
      <path clip-path="url(#pe4436ad3e1)" d="M 623.658324 640.8 
L 623.658324 86.4 
" style="fill:none;stroke:#808080;stroke-dasharray:0.8,1.32;stroke-dashoffset:0;stroke-width:0.8;"/>
     </g>
     <g id="line2d_34">
      <g>
       <use style="stroke:#000000;stroke-width:0.6;" x="623.658324" xlink:href="#m5cf0d74831" y="640.8"/>
      </g>
     </g>
    </g>
    <g id="xtick_18">
     <g id="line2d_35">
      <path clip-path="url(#pe4436ad3e1)" d="M 657.973556 640.8 
L 657.973556 86.4 
" style="fill:none;stroke:#808080;stroke-dasharray:0.8,1.32;stroke-dashoffset:0;stroke-width:0.8;"/>
     </g>
     <g id="line2d_36">
      <g>
       <use style="stroke:#000000;stroke-width:0.6;" x="657.973556" xlink:href="#m5cf0d74831" y="640.8"/>
      </g>
     </g>
    </g>
    <g id="xtick_19">
     <g id="line2d_37">
      <path clip-path="url(#pe4436ad3e1)" d="M 726.604022 640.8 
L 726.604022 86.4 
" style="fill:none;stroke:#808080;stroke-dasharray:0.8,1.32;stroke-dashoffset:0;stroke-width:0.8;"/>
     </g>
     <g id="line2d_38">
      <g>
       <use style="stroke:#000000;stroke-width:0.6;" x="726.604022" xlink:href="#m5cf0d74831" y="640.8"/>
      </g>
     </g>
    </g>
    <g id="xtick_20">
     <g id="line2d_39">
      <path clip-path="url(#pe4436ad3e1)" d="M 760.919255 640.8 
L 760.919255 86.4 
" style="fill:none;stroke:#808080;stroke-dasharray:0.8,1.32;stroke-dashoffset:0;stroke-width:0.8;"/>
     </g>
     <g id="line2d_40">
      <g>
       <use style="stroke:#000000;stroke-width:0.6;" x="760.919255" xlink:href="#m5cf0d74831" y="640.8"/>
      </g>
     </g>
    </g>
    <g id="xtick_21">
     <g id="line2d_41">
      <path clip-path="url(#pe4436ad3e1)" d="M 795.234487 640.8 
L 795.234487 86.4 
" style="fill:none;stroke:#808080;stroke-dasharray:0.8,1.32;stroke-dashoffset:0;stroke-width:0.8;"/>
     </g>
     <g id="line2d_42">
      <g>
       <use style="stroke:#000000;stroke-width:0.6;" x="795.234487" xlink:href="#m5cf0d74831" y="640.8"/>
      </g>
     </g>
    </g>
    <g id="xtick_22">
     <g id="line2d_43">
      <path clip-path="url(#pe4436ad3e1)" d="M 863.864953 640.8 
L 863.864953 86.4 
" style="fill:none;stroke:#808080;stroke-dasharray:0.8,1.32;stroke-dashoffset:0;stroke-width:0.8;"/>
     </g>
     <g id="line2d_44">
      <g>
       <use style="stroke:#000000;stroke-width:0.6;" x="863.864953" xlink:href="#m5cf0d74831" y="640.8"/>
      </g>
     </g>
    </g>
    <g id="xtick_23">
     <g id="line2d_45">
      <path clip-path="url(#pe4436ad3e1)" d="M 898.180186 640.8 
L 898.180186 86.4 
" style="fill:none;stroke:#808080;stroke-dasharray:0.8,1.32;stroke-dashoffset:0;stroke-width:0.8;"/>
     </g>
     <g id="line2d_46">
      <g>
       <use style="stroke:#000000;stroke-width:0.6;" x="898.180186" xlink:href="#m5cf0d74831" y="640.8"/>
      </g>
     </g>
    </g>
    <g id="xtick_24">
     <g id="line2d_47">
      <path clip-path="url(#pe4436ad3e1)" d="M 932.495418 640.8 
L 932.495418 86.4 
" style="fill:none;stroke:#808080;stroke-dasharray:0.8,1.32;stroke-dashoffset:0;stroke-width:0.8;"/>
     </g>
     <g id="line2d_48">
      <g>
       <use style="stroke:#000000;stroke-width:0.6;" x="932.495418" xlink:href="#m5cf0d74831" y="640.8"/>
      </g>
     </g>
    </g>
    <g id="xtick_25">
     <g id="line2d_49">
      <path clip-path="url(#pe4436ad3e1)" d="M 1001.125884 640.8 
L 1001.125884 86.4 
" style="fill:none;stroke:#808080;stroke-dasharray:0.8,1.32;stroke-dashoffset:0;stroke-width:0.8;"/>
     </g>
     <g id="line2d_50">
      <g>
       <use style="stroke:#000000;stroke-width:0.6;" x="1001.125884" xlink:href="#m5cf0d74831" y="640.8"/>
      </g>
     </g>
    </g>
    <g id="xtick_26">
     <g id="line2d_51">
      <path clip-path="url(#pe4436ad3e1)" d="M 1035.441117 640.8 
L 1035.441117 86.4 
" style="fill:none;stroke:#808080;stroke-dasharray:0.8,1.32;stroke-dashoffset:0;stroke-width:0.8;"/>
     </g>
     <g id="line2d_52">
      <g>
       <use style="stroke:#000000;stroke-width:0.6;" x="1035.441117" xlink:href="#m5cf0d74831" y="640.8"/>
      </g>
     </g>
    </g>
    <g id="text_7">
     <!-- время, с -->
     <g transform="translate(568.495312 669.076563)scale(0.1 -0.1)">
      <defs>
       <path d="M 1156 1613 
L 1156 459 
L 1975 459 
Q 2369 459 2575 607 
Q 2781 756 2781 1038 
Q 2781 1319 2575 1466 
Q 2369 1613 1975 1613 
L 1156 1613 
z
M 1156 3041 
L 1156 2072 
L 1913 2072 
Q 2238 2072 2444 2201 
Q 2650 2331 2650 2563 
Q 2650 2794 2444 2917 
Q 2238 3041 1913 3041 
L 1156 3041 
z
M 581 3500 
L 1950 3500 
Q 2566 3500 2897 3275 
Q 3228 3050 3228 2634 
Q 3228 2313 3059 2123 
Q 2891 1934 2559 1888 
Q 2956 1813 3175 1575 
Q 3394 1338 3394 981 
Q 3394 513 3033 256 
Q 2672 0 2003 0 
L 581 0 
L 581 3500 
z
" id="DejaVuSans-432" transform="scale(0.015625)"/>
       <path d="M 1159 525 
L 1159 -1331 
L 581 -1331 
L 581 3500 
L 1159 3500 
L 1159 2969 
Q 1341 3281 1617 3432 
Q 1894 3584 2278 3584 
Q 2916 3584 3314 3078 
Q 3713 2572 3713 1747 
Q 3713 922 3314 415 
Q 2916 -91 2278 -91 
Q 1894 -91 1617 61 
Q 1341 213 1159 525 
z
M 3116 1747 
Q 3116 2381 2855 2742 
Q 2594 3103 2138 3103 
Q 1681 3103 1420 2742 
Q 1159 2381 1159 1747 
Q 1159 1113 1420 752 
Q 1681 391 2138 391 
Q 2594 391 2855 752 
Q 3116 1113 3116 1747 
z
" id="DejaVuSans-440" transform="scale(0.015625)"/>
       <path d="M 3597 1894 
L 3597 1613 
L 953 1613 
Q 991 1019 1311 708 
Q 1631 397 2203 397 
Q 2534 397 2845 478 
Q 3156 559 3463 722 
L 3463 178 
Q 3153 47 2828 -22 
Q 2503 -91 2169 -91 
Q 1331 -91 842 396 
Q 353 884 353 1716 
Q 353 2575 817 3079 
Q 1281 3584 2069 3584 
Q 2775 3584 3186 3129 
Q 3597 2675 3597 1894 
z
M 3022 2063 
Q 3016 2534 2758 2815 
Q 2500 3097 2075 3097 
Q 1594 3097 1305 2825 
Q 1016 2553 972 2059 
L 3022 2063 
z
" id="DejaVuSans-435" transform="scale(0.015625)"/>
       <path d="M 581 3500 
L 1422 3500 
L 2416 1156 
L 3413 3500 
L 4247 3500 
L 4247 0 
L 3669 0 
L 3669 2950 
L 2703 672 
L 2128 672 
L 1159 2950 
L 1159 0 
L 581 0 
L 581 3500 
z
" id="DejaVuSans-43c" transform="scale(0.015625)"/>
       <path d="M 1181 2491 
Q 1181 2231 1381 2084 
Q 1581 1938 1953 1938 
L 2728 1938 
L 2728 3041 
L 1953 3041 
Q 1581 3041 1381 2897 
Q 1181 2753 1181 2491 
z
M 363 0 
L 1431 1534 
Q 1069 1616 828 1830 
Q 588 2044 588 2491 
Q 588 2997 923 3248 
Q 1259 3500 1938 3500 
L 3306 3500 
L 3306 0 
L 2728 0 
L 2728 1478 
L 2013 1478 
L 981 0 
L 363 0 
z
" id="DejaVuSans-44f" transform="scale(0.015625)"/>
       <path d="M 750 794 
L 1409 794 
L 1409 256 
L 897 -744 
L 494 -744 
L 750 256 
L 750 794 
z
" id="DejaVuSans-2c" transform="scale(0.015625)"/>
       <path id="DejaVuSans-20" transform="scale(0.015625)"/>
       <path d="M 3122 3366 
L 3122 2828 
Q 2878 2963 2633 3030 
Q 2388 3097 2138 3097 
Q 1578 3097 1268 2742 
Q 959 2388 959 1747 
Q 959 1106 1268 751 
Q 1578 397 2138 397 
Q 2388 397 2633 464 
Q 2878 531 3122 666 
L 3122 134 
Q 2881 22 2623 -34 
Q 2366 -91 2075 -91 
Q 1284 -91 818 406 
Q 353 903 353 1747 
Q 353 2603 823 3093 
Q 1294 3584 2113 3584 
Q 2378 3584 2631 3529 
Q 2884 3475 3122 3366 
z
" id="DejaVuSans-441" transform="scale(0.015625)"/>
      </defs>
      <use xlink:href="#DejaVuSans-432"/>
      <use x="58.935547" xlink:href="#DejaVuSans-440"/>
      <use x="122.412109" xlink:href="#DejaVuSans-435"/>
      <use x="183.935547" xlink:href="#DejaVuSans-43c"/>
      <use x="259.375" xlink:href="#DejaVuSans-44f"/>
      <use x="319.53125" xlink:href="#DejaVuSans-2c"/>
      <use x="351.318359" xlink:href="#DejaVuSans-20"/>
      <use x="383.105469" xlink:href="#DejaVuSans-441"/>
     </g>
    </g>
   </g>
   <g id="matplotlib.axis_2">
    <g id="ytick_1">
     <g id="line2d_53">
      <path clip-path="url(#pe4436ad3e1)" d="M 144 547.509704 
L 1036.8 547.509704 
" style="fill:none;stroke:#000000;stroke-linecap:square;stroke-width:0.8;"/>
     </g>
     <g id="line2d_54">
      <defs>
       <path d="M 0 0 
L -3.5 0 
" id="m8d7eaf7026" style="stroke:#000000;stroke-width:0.8;"/>
      </defs>
      <g>
       <use style="stroke:#000000;stroke-width:0.8;" x="144" xlink:href="#m8d7eaf7026" y="547.509704"/>
      </g>
     </g>
     <g id="text_8">
      <!-- 0.5 -->
      <g transform="translate(121.096875 551.308923)scale(0.1 -0.1)">
       <defs>
        <path d="M 684 794 
L 1344 794 
L 1344 0 
L 684 0 
L 684 794 
z
" id="DejaVuSans-2e" transform="scale(0.015625)"/>
        <path d="M 691 4666 
L 3169 4666 
L 3169 4134 
L 1269 4134 
L 1269 2991 
Q 1406 3038 1543 3061 
Q 1681 3084 1819 3084 
Q 2600 3084 3056 2656 
Q 3513 2228 3513 1497 
Q 3513 744 3044 326 
Q 2575 -91 1722 -91 
Q 1428 -91 1123 -41 
Q 819 9 494 109 
L 494 744 
Q 775 591 1075 516 
Q 1375 441 1709 441 
Q 2250 441 2565 725 
Q 2881 1009 2881 1497 
Q 2881 1984 2565 2268 
Q 2250 2553 1709 2553 
Q 1456 2553 1204 2497 
Q 953 2441 691 2322 
L 691 4666 
z
" id="DejaVuSans-35" transform="scale(0.015625)"/>
       </defs>
       <use xlink:href="#DejaVuSans-30"/>
       <use x="63.623047" xlink:href="#DejaVuSans-2e"/>
       <use x="95.410156" xlink:href="#DejaVuSans-35"/>
      </g>
     </g>
    </g>
    <g id="ytick_2">
     <g id="line2d_55">
      <path clip-path="url(#pe4436ad3e1)" d="M 144 452.120853 
L 1036.8 452.120853 
" style="fill:none;stroke:#000000;stroke-linecap:square;stroke-width:0.8;"/>
     </g>
     <g id="line2d_56">
      <g>
       <use style="stroke:#000000;stroke-width:0.8;" x="144" xlink:href="#m8d7eaf7026" y="452.120853"/>
      </g>
     </g>
     <g id="text_9">
      <!-- 1.0 -->
      <g transform="translate(121.096875 455.920072)scale(0.1 -0.1)">
       <use xlink:href="#DejaVuSans-31"/>
       <use x="63.623047" xlink:href="#DejaVuSans-2e"/>
       <use x="95.410156" xlink:href="#DejaVuSans-30"/>
      </g>
     </g>
    </g>
    <g id="ytick_3">
     <g id="line2d_57">
      <path clip-path="url(#pe4436ad3e1)" d="M 144 356.732003 
L 1036.8 356.732003 
" style="fill:none;stroke:#000000;stroke-linecap:square;stroke-width:0.8;"/>
     </g>
     <g id="line2d_58">
      <g>
       <use style="stroke:#000000;stroke-width:0.8;" x="144" xlink:href="#m8d7eaf7026" y="356.732003"/>
      </g>
     </g>
     <g id="text_10">
      <!-- 1.5 -->
      <g transform="translate(121.096875 360.531222)scale(0.1 -0.1)">
       <use xlink:href="#DejaVuSans-31"/>
       <use x="63.623047" xlink:href="#DejaVuSans-2e"/>
       <use x="95.410156" xlink:href="#DejaVuSans-35"/>
      </g>
     </g>
    </g>
    <g id="ytick_4">
     <g id="line2d_59">
      <path clip-path="url(#pe4436ad3e1)" d="M 144 261.343152 
L 1036.8 261.343152 
" style="fill:none;stroke:#000000;stroke-linecap:square;stroke-width:0.8;"/>
     </g>
     <g id="line2d_60">
      <g>
       <use style="stroke:#000000;stroke-width:0.8;" x="144" xlink:href="#m8d7eaf7026" y="261.343152"/>
      </g>
     </g>
     <g id="text_11">
      <!-- 2.0 -->
      <g transform="translate(121.096875 265.142371)scale(0.1 -0.1)">
       <use xlink:href="#DejaVuSans-32"/>
       <use x="63.623047" xlink:href="#DejaVuSans-2e"/>
       <use x="95.410156" xlink:href="#DejaVuSans-30"/>
      </g>
     </g>
    </g>
    <g id="ytick_5">
     <g id="line2d_61">
      <path clip-path="url(#pe4436ad3e1)" d="M 144 165.954301 
L 1036.8 165.954301 
" style="fill:none;stroke:#000000;stroke-linecap:square;stroke-width:0.8;"/>
     </g>
     <g id="line2d_62">
      <g>
       <use style="stroke:#000000;stroke-width:0.8;" x="144" xlink:href="#m8d7eaf7026" y="165.954301"/>
      </g>
     </g>
     <g id="text_12">
      <!-- 2.5 -->
      <g transform="translate(121.096875 169.75352)scale(0.1 -0.1)">
       <use xlink:href="#DejaVuSans-32"/>
       <use x="63.623047" xlink:href="#DejaVuSans-2e"/>
       <use x="95.410156" xlink:href="#DejaVuSans-35"/>
      </g>
     </g>
    </g>
    <g id="ytick_6">
     <g id="line2d_63">
      <path clip-path="url(#pe4436ad3e1)" d="M 144 623.820785 
L 1036.8 623.820785 
" style="fill:none;stroke:#808080;stroke-dasharray:0.8,1.32;stroke-dashoffset:0;stroke-width:0.8;"/>
     </g>
     <g id="line2d_64">
      <defs>
       <path d="M 0 0 
L -2 0 
" id="mb42260b720" style="stroke:#000000;stroke-width:0.6;"/>
      </defs>
      <g>
       <use style="stroke:#000000;stroke-width:0.6;" x="144" xlink:href="#mb42260b720" y="623.820785"/>
      </g>
     </g>
    </g>
    <g id="ytick_7">
     <g id="line2d_65">
      <path clip-path="url(#pe4436ad3e1)" d="M 144 604.743014 
L 1036.8 604.743014 
" style="fill:none;stroke:#808080;stroke-dasharray:0.8,1.32;stroke-dashoffset:0;stroke-width:0.8;"/>
     </g>
     <g id="line2d_66">
      <g>
       <use style="stroke:#000000;stroke-width:0.6;" x="144" xlink:href="#mb42260b720" y="604.743014"/>
      </g>
     </g>
    </g>
    <g id="ytick_8">
     <g id="line2d_67">
      <path clip-path="url(#pe4436ad3e1)" d="M 144 585.665244 
L 1036.8 585.665244 
" style="fill:none;stroke:#808080;stroke-dasharray:0.8,1.32;stroke-dashoffset:0;stroke-width:0.8;"/>
     </g>
     <g id="line2d_68">
      <g>
       <use style="stroke:#000000;stroke-width:0.6;" x="144" xlink:href="#mb42260b720" y="585.665244"/>
      </g>
     </g>
    </g>
    <g id="ytick_9">
     <g id="line2d_69">
      <path clip-path="url(#pe4436ad3e1)" d="M 144 566.587474 
L 1036.8 566.587474 
" style="fill:none;stroke:#808080;stroke-dasharray:0.8,1.32;stroke-dashoffset:0;stroke-width:0.8;"/>
     </g>
     <g id="line2d_70">
      <g>
       <use style="stroke:#000000;stroke-width:0.6;" x="144" xlink:href="#mb42260b720" y="566.587474"/>
      </g>
     </g>
    </g>
    <g id="ytick_10">
     <g id="line2d_71">
      <path clip-path="url(#pe4436ad3e1)" d="M 144 528.431934 
L 1036.8 528.431934 
" style="fill:none;stroke:#808080;stroke-dasharray:0.8,1.32;stroke-dashoffset:0;stroke-width:0.8;"/>
     </g>
     <g id="line2d_72">
      <g>
       <use style="stroke:#000000;stroke-width:0.6;" x="144" xlink:href="#mb42260b720" y="528.431934"/>
      </g>
     </g>
    </g>
    <g id="ytick_11">
     <g id="line2d_73">
      <path clip-path="url(#pe4436ad3e1)" d="M 144 509.354164 
L 1036.8 509.354164 
" style="fill:none;stroke:#808080;stroke-dasharray:0.8,1.32;stroke-dashoffset:0;stroke-width:0.8;"/>
     </g>
     <g id="line2d_74">
      <g>
       <use style="stroke:#000000;stroke-width:0.6;" x="144" xlink:href="#mb42260b720" y="509.354164"/>
      </g>
     </g>
    </g>
    <g id="ytick_12">
     <g id="line2d_75">
      <path clip-path="url(#pe4436ad3e1)" d="M 144 490.276394 
L 1036.8 490.276394 
" style="fill:none;stroke:#808080;stroke-dasharray:0.8,1.32;stroke-dashoffset:0;stroke-width:0.8;"/>
     </g>
     <g id="line2d_76">
      <g>
       <use style="stroke:#000000;stroke-width:0.6;" x="144" xlink:href="#mb42260b720" y="490.276394"/>
      </g>
     </g>
    </g>
    <g id="ytick_13">
     <g id="line2d_77">
      <path clip-path="url(#pe4436ad3e1)" d="M 144 471.198624 
L 1036.8 471.198624 
" style="fill:none;stroke:#808080;stroke-dasharray:0.8,1.32;stroke-dashoffset:0;stroke-width:0.8;"/>
     </g>
     <g id="line2d_78">
      <g>
       <use style="stroke:#000000;stroke-width:0.6;" x="144" xlink:href="#mb42260b720" y="471.198624"/>
      </g>
     </g>
    </g>
    <g id="ytick_14">
     <g id="line2d_79">
      <path clip-path="url(#pe4436ad3e1)" d="M 144 433.043083 
L 1036.8 433.043083 
" style="fill:none;stroke:#808080;stroke-dasharray:0.8,1.32;stroke-dashoffset:0;stroke-width:0.8;"/>
     </g>
     <g id="line2d_80">
      <g>
       <use style="stroke:#000000;stroke-width:0.6;" x="144" xlink:href="#mb42260b720" y="433.043083"/>
      </g>
     </g>
    </g>
    <g id="ytick_15">
     <g id="line2d_81">
      <path clip-path="url(#pe4436ad3e1)" d="M 144 413.965313 
L 1036.8 413.965313 
" style="fill:none;stroke:#808080;stroke-dasharray:0.8,1.32;stroke-dashoffset:0;stroke-width:0.8;"/>
     </g>
     <g id="line2d_82">
      <g>
       <use style="stroke:#000000;stroke-width:0.6;" x="144" xlink:href="#mb42260b720" y="413.965313"/>
      </g>
     </g>
    </g>
    <g id="ytick_16">
     <g id="line2d_83">
      <path clip-path="url(#pe4436ad3e1)" d="M 144 394.887543 
L 1036.8 394.887543 
" style="fill:none;stroke:#808080;stroke-dasharray:0.8,1.32;stroke-dashoffset:0;stroke-width:0.8;"/>
     </g>
     <g id="line2d_84">
      <g>
       <use style="stroke:#000000;stroke-width:0.6;" x="144" xlink:href="#mb42260b720" y="394.887543"/>
      </g>
     </g>
    </g>
    <g id="ytick_17">
     <g id="line2d_85">
      <path clip-path="url(#pe4436ad3e1)" d="M 144 375.809773 
L 1036.8 375.809773 
" style="fill:none;stroke:#808080;stroke-dasharray:0.8,1.32;stroke-dashoffset:0;stroke-width:0.8;"/>
     </g>
     <g id="line2d_86">
      <g>
       <use style="stroke:#000000;stroke-width:0.6;" x="144" xlink:href="#mb42260b720" y="375.809773"/>
      </g>
     </g>
    </g>
    <g id="ytick_18">
     <g id="line2d_87">
      <path clip-path="url(#pe4436ad3e1)" d="M 144 337.654233 
L 1036.8 337.654233 
" style="fill:none;stroke:#808080;stroke-dasharray:0.8,1.32;stroke-dashoffset:0;stroke-width:0.8;"/>
     </g>
     <g id="line2d_88">
      <g>
       <use style="stroke:#000000;stroke-width:0.6;" x="144" xlink:href="#mb42260b720" y="337.654233"/>
      </g>
     </g>
    </g>
    <g id="ytick_19">
     <g id="line2d_89">
      <path clip-path="url(#pe4436ad3e1)" d="M 144 318.576462 
L 1036.8 318.576462 
" style="fill:none;stroke:#808080;stroke-dasharray:0.8,1.32;stroke-dashoffset:0;stroke-width:0.8;"/>
     </g>
     <g id="line2d_90">
      <g>
       <use style="stroke:#000000;stroke-width:0.6;" x="144" xlink:href="#mb42260b720" y="318.576462"/>
      </g>
     </g>
    </g>
    <g id="ytick_20">
     <g id="line2d_91">
      <path clip-path="url(#pe4436ad3e1)" d="M 144 299.498692 
L 1036.8 299.498692 
" style="fill:none;stroke:#808080;stroke-dasharray:0.8,1.32;stroke-dashoffset:0;stroke-width:0.8;"/>
     </g>
     <g id="line2d_92">
      <g>
       <use style="stroke:#000000;stroke-width:0.6;" x="144" xlink:href="#mb42260b720" y="299.498692"/>
      </g>
     </g>
    </g>
    <g id="ytick_21">
     <g id="line2d_93">
      <path clip-path="url(#pe4436ad3e1)" d="M 144 280.420922 
L 1036.8 280.420922 
" style="fill:none;stroke:#808080;stroke-dasharray:0.8,1.32;stroke-dashoffset:0;stroke-width:0.8;"/>
     </g>
     <g id="line2d_94">
      <g>
       <use style="stroke:#000000;stroke-width:0.6;" x="144" xlink:href="#mb42260b720" y="280.420922"/>
      </g>
     </g>
    </g>
    <g id="ytick_22">
     <g id="line2d_95">
      <path clip-path="url(#pe4436ad3e1)" d="M 144 242.265382 
L 1036.8 242.265382 
" style="fill:none;stroke:#808080;stroke-dasharray:0.8,1.32;stroke-dashoffset:0;stroke-width:0.8;"/>
     </g>
     <g id="line2d_96">
      <g>
       <use style="stroke:#000000;stroke-width:0.6;" x="144" xlink:href="#mb42260b720" y="242.265382"/>
      </g>
     </g>
    </g>
    <g id="ytick_23">
     <g id="line2d_97">
      <path clip-path="url(#pe4436ad3e1)" d="M 144 223.187612 
L 1036.8 223.187612 
" style="fill:none;stroke:#808080;stroke-dasharray:0.8,1.32;stroke-dashoffset:0;stroke-width:0.8;"/>
     </g>
     <g id="line2d_98">
      <g>
       <use style="stroke:#000000;stroke-width:0.6;" x="144" xlink:href="#mb42260b720" y="223.187612"/>
      </g>
     </g>
    </g>
    <g id="ytick_24">
     <g id="line2d_99">
      <path clip-path="url(#pe4436ad3e1)" d="M 144 204.109842 
L 1036.8 204.109842 
" style="fill:none;stroke:#808080;stroke-dasharray:0.8,1.32;stroke-dashoffset:0;stroke-width:0.8;"/>
     </g>
     <g id="line2d_100">
      <g>
       <use style="stroke:#000000;stroke-width:0.6;" x="144" xlink:href="#mb42260b720" y="204.109842"/>
      </g>
     </g>
    </g>
    <g id="ytick_25">
     <g id="line2d_101">
      <path clip-path="url(#pe4436ad3e1)" d="M 144 185.032072 
L 1036.8 185.032072 
" style="fill:none;stroke:#808080;stroke-dasharray:0.8,1.32;stroke-dashoffset:0;stroke-width:0.8;"/>
     </g>
     <g id="line2d_102">
      <g>
       <use style="stroke:#000000;stroke-width:0.6;" x="144" xlink:href="#mb42260b720" y="185.032072"/>
      </g>
     </g>
    </g>
    <g id="ytick_26">
     <g id="line2d_103">
      <path clip-path="url(#pe4436ad3e1)" d="M 144 146.876531 
L 1036.8 146.876531 
" style="fill:none;stroke:#808080;stroke-dasharray:0.8,1.32;stroke-dashoffset:0;stroke-width:0.8;"/>
     </g>
     <g id="line2d_104">
      <g>
       <use style="stroke:#000000;stroke-width:0.6;" x="144" xlink:href="#mb42260b720" y="146.876531"/>
      </g>
     </g>
    </g>
    <g id="ytick_27">
     <g id="line2d_105">
      <path clip-path="url(#pe4436ad3e1)" d="M 144 127.798761 
L 1036.8 127.798761 
" style="fill:none;stroke:#808080;stroke-dasharray:0.8,1.32;stroke-dashoffset:0;stroke-width:0.8;"/>
     </g>
     <g id="line2d_106">
      <g>
       <use style="stroke:#000000;stroke-width:0.6;" x="144" xlink:href="#mb42260b720" y="127.798761"/>
      </g>
     </g>
    </g>
    <g id="ytick_28">
     <g id="line2d_107">
      <path clip-path="url(#pe4436ad3e1)" d="M 144 108.720991 
L 1036.8 108.720991 
" style="fill:none;stroke:#808080;stroke-dasharray:0.8,1.32;stroke-dashoffset:0;stroke-width:0.8;"/>
     </g>
     <g id="line2d_108">
      <g>
       <use style="stroke:#000000;stroke-width:0.6;" x="144" xlink:href="#mb42260b720" y="108.720991"/>
      </g>
     </g>
    </g>
    <g id="ytick_29">
     <g id="line2d_109">
      <path clip-path="url(#pe4436ad3e1)" d="M 144 89.643221 
L 1036.8 89.643221 
" style="fill:none;stroke:#808080;stroke-dasharray:0.8,1.32;stroke-dashoffset:0;stroke-width:0.8;"/>
     </g>
     <g id="line2d_110">
      <g>
       <use style="stroke:#000000;stroke-width:0.6;" x="144" xlink:href="#mb42260b720" y="89.643221"/>
      </g>
     </g>
    </g>
    <g id="text_13">
     <!-- напряжение, В -->
     <g transform="translate(115.017187 403.167969)rotate(-90)scale(0.1 -0.1)">
      <defs>
       <path d="M 581 3500 
L 1159 3500 
L 1159 2072 
L 3025 2072 
L 3025 3500 
L 3603 3500 
L 3603 0 
L 3025 0 
L 3025 1613 
L 1159 1613 
L 1159 0 
L 581 0 
L 581 3500 
z
" id="DejaVuSans-43d" transform="scale(0.015625)"/>
       <path d="M 2194 1759 
Q 1497 1759 1228 1600 
Q 959 1441 959 1056 
Q 959 750 1161 570 
Q 1363 391 1709 391 
Q 2188 391 2477 730 
Q 2766 1069 2766 1631 
L 2766 1759 
L 2194 1759 
z
M 3341 1997 
L 3341 0 
L 2766 0 
L 2766 531 
Q 2569 213 2275 61 
Q 1981 -91 1556 -91 
Q 1019 -91 701 211 
Q 384 513 384 1019 
Q 384 1609 779 1909 
Q 1175 2209 1959 2209 
L 2766 2209 
L 2766 2266 
Q 2766 2663 2505 2880 
Q 2244 3097 1772 3097 
Q 1472 3097 1187 3025 
Q 903 2953 641 2809 
L 641 3341 
Q 956 3463 1253 3523 
Q 1550 3584 1831 3584 
Q 2591 3584 2966 3190 
Q 3341 2797 3341 1997 
z
" id="DejaVuSans-430" transform="scale(0.015625)"/>
       <path d="M 3603 3500 
L 3603 0 
L 3025 0 
L 3025 3041 
L 1159 3041 
L 1159 0 
L 581 0 
L 581 3500 
L 3603 3500 
z
" id="DejaVuSans-43f" transform="scale(0.015625)"/>
       <path d="M 2597 3500 
L 3169 3500 
L 3169 1856 
L 4697 3500 
L 5366 3500 
L 4109 2153 
L 5547 0 
L 4931 0 
L 3753 1769 
L 3169 1141 
L 3169 0 
L 2597 0 
L 2597 1141 
L 2013 1769 
L 834 0 
L 219 0 
L 1656 2153 
L 400 3500 
L 1069 3500 
L 2597 1856 
L 2597 3500 
z
" id="DejaVuSans-436" transform="scale(0.015625)"/>
       <path d="M 3578 3500 
L 3578 0 
L 3006 0 
L 3006 2809 
L 1319 0 
L 581 0 
L 581 3500 
L 1153 3500 
L 1153 697 
L 2838 3500 
L 3578 3500 
z
" id="DejaVuSans-438" transform="scale(0.015625)"/>
       <path d="M 1259 2228 
L 1259 519 
L 2272 519 
Q 2781 519 3026 730 
Q 3272 941 3272 1375 
Q 3272 1813 3026 2020 
Q 2781 2228 2272 2228 
L 1259 2228 
z
M 1259 4147 
L 1259 2741 
L 2194 2741 
Q 2656 2741 2882 2914 
Q 3109 3088 3109 3444 
Q 3109 3797 2882 3972 
Q 2656 4147 2194 4147 
L 1259 4147 
z
M 628 4666 
L 2241 4666 
Q 2963 4666 3353 4366 
Q 3744 4066 3744 3513 
Q 3744 3084 3544 2831 
Q 3344 2578 2956 2516 
Q 3422 2416 3680 2098 
Q 3938 1781 3938 1306 
Q 3938 681 3513 340 
Q 3088 0 2303 0 
L 628 0 
L 628 4666 
z
" id="DejaVuSans-412" transform="scale(0.015625)"/>
      </defs>
      <use xlink:href="#DejaVuSans-43d"/>
      <use x="65.380859" xlink:href="#DejaVuSans-430"/>
      <use x="126.660156" xlink:href="#DejaVuSans-43f"/>
      <use x="192.041016" xlink:href="#DejaVuSans-440"/>
      <use x="255.517578" xlink:href="#DejaVuSans-44f"/>
      <use x="315.673828" xlink:href="#DejaVuSans-436"/>
      <use x="405.761719" xlink:href="#DejaVuSans-435"/>
      <use x="467.285156" xlink:href="#DejaVuSans-43d"/>
      <use x="532.666016" xlink:href="#DejaVuSans-438"/>
      <use x="597.65625" xlink:href="#DejaVuSans-435"/>
      <use x="659.179688" xlink:href="#DejaVuSans-2c"/>
      <use x="690.966797" xlink:href="#DejaVuSans-20"/>
      <use x="722.753906" xlink:href="#DejaVuSans-412"/>
     </g>
    </g>
   </g>
   <g id="line2d_111">
    <path clip-path="url(#pe4436ad3e1)" d="M 143.245065 640.8 
L 144.164713 632.405781 
L 146.923658 619.814453 
L 147.843306 611.420234 
L 149.682603 603.026015 
L 150.602251 594.631796 
L 151.521899 594.631796 
L 152.441547 586.237577 
L 153.361195 586.237577 
L 154.280844 577.843359 
L 155.200492 577.843359 
L 156.12014 565.25203 
L 168.075567 510.689608 
L 168.995216 510.689608 
L 169.914864 502.295389 
L 173.593457 485.506951 
L 174.513105 485.506951 
L 175.432753 477.112732 
L 176.352401 477.112732 
L 183.709587 443.535857 
L 184.629236 443.535857 
L 188.307829 426.747419 
L 189.227477 426.747419 
L 192.90607 409.958981 
L 193.825718 409.958981 
L 195.665014 401.564763 
L 196.584663 401.564763 
L 198.423959 393.170544 
L 199.343607 393.170544 
L 201.182904 384.776325 
L 202.102552 384.776325 
L 203.941849 376.382106 
L 205.781145 376.382106 
L 206.700793 367.987887 
L 207.620442 367.987887 
L 208.54009 363.790778 
L 209.459738 363.790778 
L 211.299034 355.396559 
L 212.218683 355.396559 
L 213.138331 351.199449 
L 214.057979 351.199449 
L 215.897276 342.805231 
L 217.736572 342.805231 
L 219.575869 334.411012 
L 221.415165 334.411012 
L 223.254462 326.016793 
L 224.17411 326.016793 
L 225.093758 321.819683 
L 226.013406 321.819683 
L 226.933055 317.622574 
L 227.852703 317.622574 
L 228.772351 313.425465 
L 229.691999 313.425465 
L 230.611648 309.228355 
L 233.370592 309.228355 
L 234.29024 300.834136 
L 236.129537 300.834136 
L 237.049185 296.637027 
L 237.968833 296.637027 
L 238.888482 292.439917 
L 240.727778 292.439917 
L 241.647426 288.242808 
L 242.567075 288.242808 
L 243.486723 284.045699 
L 244.406371 284.045699 
L 245.326019 279.848589 
L 248.084964 279.848589 
L 249.924261 271.45437 
L 251.763557 271.45437 
L 252.683205 267.257261 
L 254.522502 267.257261 
L 255.44215 263.060151 
L 256.361798 263.060151 
L 257.281446 258.863042 
L 260.040391 258.863042 
L 260.960039 254.665933 
L 261.879688 254.665933 
L 262.799336 250.468823 
L 264.638632 250.468823 
L 265.558281 246.271714 
L 268.317225 246.271714 
L 270.156522 237.877495 
L 275.674411 237.877495 
L 277.513708 229.483276 
L 281.192301 229.483276 
L 282.111949 225.286167 
L 284.870894 225.286167 
L 285.790542 221.089057 
L 287.629838 221.089057 
L 288.549487 216.891948 
L 290.388783 216.891948 
L 291.308431 212.694838 
L 294.987024 212.694838 
L 295.906672 208.497729 
L 299.585265 208.497729 
L 300.504914 204.300619 
L 304.183507 204.300619 
L 305.103155 200.10351 
L 308.781748 200.10351 
L 309.701396 195.906401 
L 311.540692 195.906401 
L 312.460341 191.709291 
L 313.379989 195.906401 
L 314.299637 191.709291 
L 317.058582 191.709291 
L 317.97823 187.512182 
L 324.415768 187.512182 
L 325.335416 183.315072 
L 329.933657 183.315072 
L 330.853305 179.117963 
L 335.451547 179.117963 
L 336.371195 174.920853 
L 340.049788 174.920853 
L 340.969436 170.723744 
L 351.085567 170.723744 
L 352.005215 166.526635 
L 359.362401 166.526635 
L 360.282049 162.329525 
L 361.201697 166.526635 
L 362.121346 162.329525 
L 366.719587 162.329525 
L 367.639235 158.132416 
L 368.558883 162.329525 
L 369.478531 158.132416 
L 377.755366 158.132416 
L 378.675014 153.935306 
L 386.951848 153.935306 
L 387.871496 149.738197 
L 396.14833 149.738197 
L 397.067979 145.541087 
L 397.987627 149.738197 
L 398.907275 149.738197 
L 399.826923 145.541087 
L 408.103757 145.541087 
L 409.023406 141.343978 
L 409.943054 145.541087 
L 410.862702 145.541087 
L 411.78235 141.343978 
L 412.701999 145.541087 
L 413.621647 145.541087 
L 414.541295 141.343978 
L 421.898481 141.343978 
L 422.818129 137.146869 
L 423.737778 141.343978 
L 424.657426 141.343978 
L 425.577074 137.146869 
L 426.496722 137.146869 
L 427.41637 141.343978 
L 430.175315 141.343978 
L 431.094963 137.146869 
L 448.56828 137.146869 
L 449.487928 132.949759 
L 450.407576 137.146869 
L 451.327225 132.949759 
L 471.559486 132.949759 
L 472.479134 128.75265 
L 473.398782 128.75265 
L 474.318431 132.949759 
L 475.238079 132.949759 
L 476.157727 128.75265 
L 477.077375 128.75265 
L 477.997024 132.949759 
L 478.916672 128.75265 
L 494.550692 128.75265 
L 495.47034 124.55554 
L 496.389988 132.949759 
L 497.309637 137.146869 
L 498.229285 137.146869 
L 499.148933 145.541087 
L 500.98823 153.935306 
L 501.907878 162.329525 
L 502.827526 162.329525 
L 503.747174 170.723744 
L 504.666822 170.723744 
L 505.586471 179.117963 
L 507.425767 187.512182 
L 508.345415 187.512182 
L 509.265064 195.906401 
L 510.184712 195.906401 
L 519.381194 237.877495 
L 520.300843 237.877495 
L 524.899084 258.863042 
L 525.818732 258.863042 
L 526.73838 267.257261 
L 527.658028 267.257261 
L 528.577677 271.45437 
L 529.497325 271.45437 
L 534.095566 292.439917 
L 535.015214 292.439917 
L 538.693807 309.228355 
L 539.613456 309.228355 
L 541.452752 317.622574 
L 542.3724 317.622574 
L 543.292048 321.819683 
L 544.211697 321.819683 
L 546.970641 334.411012 
L 547.89029 334.411012 
L 548.809938 338.608121 
L 549.729586 338.608121 
L 551.568883 347.00234 
L 552.488531 347.00234 
L 554.327827 355.396559 
L 555.247476 355.396559 
L 556.167124 359.593668 
L 557.086772 359.593668 
L 558.00642 363.790778 
L 558.926069 363.790778 
L 559.845717 367.987887 
L 560.765365 367.987887 
L 561.685013 372.184997 
L 562.604661 372.184997 
L 563.52431 376.382106 
L 564.443958 376.382106 
L 565.363606 380.579215 
L 566.283254 380.579215 
L 568.122551 388.973434 
L 569.961847 388.973434 
L 570.881496 393.170544 
L 571.801144 393.170544 
L 572.720792 397.367653 
L 573.64044 397.367653 
L 575.479737 405.761872 
L 577.319033 405.761872 
L 578.238682 409.958981 
L 579.15833 409.958981 
L 580.077978 414.156091 
L 580.997626 414.156091 
L 581.917274 418.3532 
L 582.836923 418.3532 
L 583.756571 422.55031 
L 585.595867 422.55031 
L 586.515516 426.747419 
L 587.435164 426.747419 
L 588.354812 430.944529 
L 589.27446 430.944529 
L 590.194109 435.141638 
L 591.113757 435.141638 
L 592.033405 439.338747 
L 594.79235 439.338747 
L 596.631646 447.732966 
L 598.470943 447.732966 
L 599.390591 451.930076 
L 600.310239 451.930076 
L 601.229887 456.127185 
L 603.988832 456.127185 
L 604.90848 460.324295 
L 605.828129 460.324295 
L 606.747777 464.521404 
L 608.587073 464.521404 
L 609.506722 468.718513 
L 610.42637 468.718513 
L 611.346018 472.915623 
L 613.185315 472.915623 
L 614.104963 477.112732 
L 616.863908 477.112732 
L 617.783556 481.309842 
L 619.622852 481.309842 
L 620.5425 485.506951 
L 622.381797 485.506951 
L 623.301445 489.704061 
L 626.06039 489.704061 
L 626.980038 493.90117 
L 627.899686 493.90117 
L 628.819335 498.098279 
L 631.578279 498.098279 
L 632.497928 502.295389 
L 634.337224 502.295389 
L 635.256872 506.492498 
L 636.176521 506.492498 
L 637.096169 510.689608 
L 642.614058 510.689608 
L 643.533706 514.886717 
L 645.373003 514.886717 
L 646.292651 519.083827 
L 648.131948 519.083827 
L 649.051596 523.280936 
L 652.730189 523.280936 
L 653.649837 527.478045 
L 656.408782 527.478045 
L 657.32843 531.675155 
L 659.167726 531.675155 
L 660.087375 535.872264 
L 663.765968 535.872264 
L 664.685616 540.069374 
L 668.364209 540.069374 
L 669.283857 544.266483 
L 670.203505 540.069374 
L 671.123154 544.266483 
L 672.96245 544.266483 
L 673.882098 548.463593 
L 677.560691 548.463593 
L 678.480339 552.660702 
L 682.158932 552.660702 
L 683.078581 556.857811 
L 686.757174 556.857811 
L 687.676822 561.054921 
L 693.194711 561.054921 
L 694.11436 565.25203 
L 697.792952 565.25203 
L 698.712601 569.44914 
L 702.391194 569.44914 
L 703.310842 573.646249 
L 704.23049 569.44914 
L 705.150138 573.646249 
L 707.909083 573.646249 
L 708.828731 577.843359 
L 718.025214 577.843359 
L 718.944862 582.040468 
L 725.3824 582.040468 
L 726.302048 586.237577 
L 730.900289 586.237577 
L 731.819937 590.434687 
L 740.096771 590.434687 
L 741.01642 594.631796 
L 750.212902 594.631796 
L 751.13255 598.828906 
L 758.489736 598.828906 
L 759.409384 603.026015 
L 760.329033 598.828906 
L 761.248681 603.026015 
L 771.364812 603.026015 
L 772.28446 607.223125 
L 780.561294 607.223125 
L 781.480942 611.420234 
L 796.195314 611.420234 
L 797.114962 615.617343 
L 811.829334 615.617343 
L 812.748982 619.814453 
L 813.66863 615.617343 
L 814.588279 619.814453 
L 829.302651 619.814453 
L 830.222299 624.011562 
L 849.534912 624.011562 
L 850.45456 628.208672 
L 851.374208 624.011562 
L 854.133153 624.011562 
L 855.052801 628.208672 
L 855.972449 628.208672 
L 856.892098 624.011562 
L 857.811746 628.208672 
L 876.204711 628.208672 
L 877.124359 632.405781 
L 878.044007 628.208672 
L 885.401193 628.208672 
L 886.320841 632.405781 
L 888.160138 632.405781 
L 889.079786 628.208672 
L 889.999434 632.405781 
L 914.829937 632.405781 
L 915.749585 636.602891 
L 916.669233 632.405781 
L 918.50853 632.405781 
L 919.428178 636.602891 
L 967.249886 636.602891 
L 968.169534 640.8 
L 968.169534 640.8 
" style="fill:none;stroke:#000000;stroke-linecap:square;"/>
   </g>
   <g id="patch_3">
    <path d="M 144 640.8 
L 144 86.4 
" style="fill:none;stroke:#000000;stroke-linecap:square;stroke-linejoin:miter;stroke-width:0.8;"/>
   </g>
   <g id="patch_4">
    <path d="M 1036.8 640.8 
L 1036.8 86.4 
" style="fill:none;stroke:#000000;stroke-linecap:square;stroke-linejoin:miter;stroke-width:0.8;"/>
   </g>
   <g id="patch_5">
    <path d="M 144 640.8 
L 1036.8 640.8 
" style="fill:none;stroke:#000000;stroke-linecap:square;stroke-linejoin:miter;stroke-width:0.8;"/>
   </g>
   <g id="patch_6">
    <path d="M 144 86.4 
L 1036.8 86.4 
" style="fill:none;stroke:#000000;stroke-linecap:square;stroke-linejoin:miter;stroke-width:0.8;"/>
   </g>
   <g id="text_14">
    <!-- процесс заряда и разряда конденсатора в RC цепи -->
    <g transform="translate(427.544062 80.4)scale(0.12 -0.12)">
     <defs>
      <path d="M 1959 3097 
Q 1497 3097 1228 2736 
Q 959 2375 959 1747 
Q 959 1119 1226 758 
Q 1494 397 1959 397 
Q 2419 397 2687 759 
Q 2956 1122 2956 1747 
Q 2956 2369 2687 2733 
Q 2419 3097 1959 3097 
z
M 1959 3584 
Q 2709 3584 3137 3096 
Q 3566 2609 3566 1747 
Q 3566 888 3137 398 
Q 2709 -91 1959 -91 
Q 1206 -91 779 398 
Q 353 888 353 1747 
Q 353 2609 779 3096 
Q 1206 3584 1959 3584 
z
" id="DejaVuSans-43e" transform="scale(0.015625)"/>
      <path d="M 3603 0 
L 581 0 
L 581 3500 
L 1159 3500 
L 1159 459 
L 3025 459 
L 3025 3500 
L 3603 3500 
L 3603 459 
L 4063 459 
L 4063 -884 
L 3603 -884 
L 3603 0 
z
" id="DejaVuSans-446" transform="scale(0.015625)"/>
      <path d="M 2206 1888 
Q 2594 1813 2809 1584 
Q 3025 1356 3025 1019 
Q 3025 478 2622 193 
Q 2219 -91 1475 -91 
Q 1225 -91 961 -47 
Q 697 -3 416 84 
L 416 619 
Q 638 503 903 445 
Q 1169 388 1459 388 
Q 1931 388 2195 563 
Q 2459 738 2459 1019 
Q 2459 1294 2225 1461 
Q 1991 1628 1563 1628 
L 1100 1628 
L 1100 2103 
L 1584 2103 
Q 1947 2103 2158 2242 
Q 2369 2381 2369 2600 
Q 2369 2800 2151 2944 
Q 1934 3088 1563 3088 
Q 1341 3088 1089 3047 
Q 838 3006 534 2916 
L 534 3438 
Q 841 3513 1106 3550 
Q 1372 3588 1609 3588 
Q 2222 3588 2576 3342 
Q 2931 3097 2931 2656 
Q 2931 2366 2743 2164 
Q 2556 1963 2206 1888 
z
" id="DejaVuSans-437" transform="scale(0.015625)"/>
      <path d="M 1384 459 
L 3053 459 
L 3053 3041 
L 1844 3041 
L 1844 2603 
Q 1844 1316 1475 628 
L 1384 459 
z
M 550 459 
Q 834 584 959 850 
Q 1266 1509 1266 2838 
L 1266 3500 
L 3631 3500 
L 3631 459 
L 4091 459 
L 4091 -884 
L 3631 -884 
L 3631 0 
L 794 0 
L 794 -884 
L 334 -884 
L 334 459 
L 550 459 
z
" id="DejaVuSans-434" transform="scale(0.015625)"/>
      <path d="M 581 3500 
L 1153 3500 
L 1153 1856 
L 2775 3500 
L 3481 3500 
L 2144 2147 
L 3653 0 
L 3009 0 
L 1769 1766 
L 1153 1141 
L 1153 0 
L 581 0 
L 581 3500 
z
" id="DejaVuSans-43a" transform="scale(0.015625)"/>
      <path d="M 188 3500 
L 3541 3500 
L 3541 3041 
L 2147 3041 
L 2147 0 
L 1581 0 
L 1581 3041 
L 188 3041 
L 188 3500 
z
" id="DejaVuSans-442" transform="scale(0.015625)"/>
      <path d="M 2841 2188 
Q 3044 2119 3236 1894 
Q 3428 1669 3622 1275 
L 4263 0 
L 3584 0 
L 2988 1197 
Q 2756 1666 2539 1819 
Q 2322 1972 1947 1972 
L 1259 1972 
L 1259 0 
L 628 0 
L 628 4666 
L 2053 4666 
Q 2853 4666 3247 4331 
Q 3641 3997 3641 3322 
Q 3641 2881 3436 2590 
Q 3231 2300 2841 2188 
z
M 1259 4147 
L 1259 2491 
L 2053 2491 
Q 2509 2491 2742 2702 
Q 2975 2913 2975 3322 
Q 2975 3731 2742 3939 
Q 2509 4147 2053 4147 
L 1259 4147 
z
" id="DejaVuSans-52" transform="scale(0.015625)"/>
      <path d="M 4122 4306 
L 4122 3641 
Q 3803 3938 3442 4084 
Q 3081 4231 2675 4231 
Q 1875 4231 1450 3742 
Q 1025 3253 1025 2328 
Q 1025 1406 1450 917 
Q 1875 428 2675 428 
Q 3081 428 3442 575 
Q 3803 722 4122 1019 
L 4122 359 
Q 3791 134 3420 21 
Q 3050 -91 2638 -91 
Q 1578 -91 968 557 
Q 359 1206 359 2328 
Q 359 3453 968 4101 
Q 1578 4750 2638 4750 
Q 3056 4750 3426 4639 
Q 3797 4528 4122 4306 
z
" id="DejaVuSans-43" transform="scale(0.015625)"/>
     </defs>
     <use xlink:href="#DejaVuSans-43f"/>
     <use x="65.380859" xlink:href="#DejaVuSans-440"/>
     <use x="128.857422" xlink:href="#DejaVuSans-43e"/>
     <use x="190.039062" xlink:href="#DejaVuSans-446"/>
     <use x="258.105469" xlink:href="#DejaVuSans-435"/>
     <use x="319.628906" xlink:href="#DejaVuSans-441"/>
     <use x="374.609375" xlink:href="#DejaVuSans-441"/>
     <use x="429.589844" xlink:href="#DejaVuSans-20"/>
     <use x="461.376953" xlink:href="#DejaVuSans-437"/>
     <use x="514.550781" xlink:href="#DejaVuSans-430"/>
     <use x="575.830078" xlink:href="#DejaVuSans-440"/>
     <use x="639.306641" xlink:href="#DejaVuSans-44f"/>
     <use x="699.462891" xlink:href="#DejaVuSans-434"/>
     <use x="768.603516" xlink:href="#DejaVuSans-430"/>
     <use x="829.882812" xlink:href="#DejaVuSans-20"/>
     <use x="861.669922" xlink:href="#DejaVuSans-438"/>
     <use x="926.660156" xlink:href="#DejaVuSans-20"/>
     <use x="958.447266" xlink:href="#DejaVuSans-440"/>
     <use x="1021.923828" xlink:href="#DejaVuSans-430"/>
     <use x="1083.203125" xlink:href="#DejaVuSans-437"/>
     <use x="1136.376953" xlink:href="#DejaVuSans-440"/>
     <use x="1199.853516" xlink:href="#DejaVuSans-44f"/>
     <use x="1260.009766" xlink:href="#DejaVuSans-434"/>
     <use x="1329.150391" xlink:href="#DejaVuSans-430"/>
     <use x="1390.429688" xlink:href="#DejaVuSans-20"/>
     <use x="1422.216797" xlink:href="#DejaVuSans-43a"/>
     <use x="1482.617188" xlink:href="#DejaVuSans-43e"/>
     <use x="1543.798828" xlink:href="#DejaVuSans-43d"/>
     <use x="1609.179688" xlink:href="#DejaVuSans-434"/>
     <use x="1678.320312" xlink:href="#DejaVuSans-435"/>
     <use x="1739.84375" xlink:href="#DejaVuSans-43d"/>
     <use x="1805.224609" xlink:href="#DejaVuSans-441"/>
     <use x="1860.205078" xlink:href="#DejaVuSans-430"/>
     <use x="1921.484375" xlink:href="#DejaVuSans-442"/>
     <use x="1979.736328" xlink:href="#DejaVuSans-43e"/>
     <use x="2040.917969" xlink:href="#DejaVuSans-440"/>
     <use x="2104.394531" xlink:href="#DejaVuSans-430"/>
     <use x="2165.673828" xlink:href="#DejaVuSans-20"/>
     <use x="2197.460938" xlink:href="#DejaVuSans-432"/>
     <use x="2256.396484" xlink:href="#DejaVuSans-20"/>
     <use x="2288.183594" xlink:href="#DejaVuSans-52"/>
     <use x="2352.666016" xlink:href="#DejaVuSans-43"/>
     <use x="2422.490234" xlink:href="#DejaVuSans-20"/>
     <use x="2454.277344" xlink:href="#DejaVuSans-446"/>
     <use x="2522.34375" xlink:href="#DejaVuSans-435"/>
     <use x="2583.867188" xlink:href="#DejaVuSans-43f"/>
     <use x="2649.248047" xlink:href="#DejaVuSans-438"/>
    </g>
   </g>
   <g id="legend_1">
    <g id="patch_7">
     <path d="M 864.107812 390.117188 
L 1015.8 390.117188 
Q 1021.8 390.117188 1021.8 384.117188 
L 1021.8 343.082812 
Q 1021.8 337.082812 1015.8 337.082812 
L 864.107812 337.082812 
Q 858.107812 337.082812 858.107812 343.082812 
L 858.107812 384.117188 
Q 858.107812 390.117188 864.107812 390.117188 
z
" style="fill:#ffffff;opacity:0.8;stroke:#cccccc;stroke-linejoin:miter;"/>
    </g>
    <g id="line2d_112">
     <path d="M 870.107812 361.378125 
L 930.107812 361.378125 
" style="fill:none;stroke:#000000;stroke-linecap:square;"/>
    </g>
    <g id="line2d_113"/>
    <g id="text_15">
     <!-- V(t) -->
     <g transform="translate(954.107812 371.878125)scale(0.3 -0.3)">
      <defs>
       <path d="M 1831 0 
L 50 4666 
L 709 4666 
L 2188 738 
L 3669 4666 
L 4325 4666 
L 2547 0 
L 1831 0 
z
" id="DejaVuSans-56" transform="scale(0.015625)"/>
       <path d="M 1984 4856 
Q 1566 4138 1362 3434 
Q 1159 2731 1159 2009 
Q 1159 1288 1364 580 
Q 1569 -128 1984 -844 
L 1484 -844 
Q 1016 -109 783 600 
Q 550 1309 550 2009 
Q 550 2706 781 3412 
Q 1013 4119 1484 4856 
L 1984 4856 
z
" id="DejaVuSans-28" transform="scale(0.015625)"/>
       <path d="M 1172 4494 
L 1172 3500 
L 2356 3500 
L 2356 3053 
L 1172 3053 
L 1172 1153 
Q 1172 725 1289 603 
Q 1406 481 1766 481 
L 2356 481 
L 2356 0 
L 1766 0 
Q 1100 0 847 248 
Q 594 497 594 1153 
L 594 3053 
L 172 3053 
L 172 3500 
L 594 3500 
L 594 4494 
L 1172 4494 
z
" id="DejaVuSans-74" transform="scale(0.015625)"/>
       <path d="M 513 4856 
L 1013 4856 
Q 1481 4119 1714 3412 
Q 1947 2706 1947 2009 
Q 1947 1309 1714 600 
Q 1481 -109 1013 -844 
L 513 -844 
Q 928 -128 1133 580 
Q 1338 1288 1338 2009 
Q 1338 2731 1133 3434 
Q 928 4138 513 4856 
z
" id="DejaVuSans-29" transform="scale(0.015625)"/>
      </defs>
      <use xlink:href="#DejaVuSans-56"/>
      <use x="68.408203" xlink:href="#DejaVuSans-28"/>
      <use x="107.421875" xlink:href="#DejaVuSans-74"/>
      <use x="146.630859" xlink:href="#DejaVuSans-29"/>
     </g>
    </g>
   </g>
  </g>
 </g>
 <defs>
  <clipPath id="pe4436ad3e1">
   <rect height="554.4" width="892.8" x="144" y="86.4"/>
  </clipPath>
 </defs>
</svg>
